<?xml version="1.0" encoding="UTF-8"?>
<svg xmlns="http://www.w3.org/2000/svg" xmlns:xlink="http://www.w3.org/1999/xlink" width="516px"
    height="516px" viewBox="0 0 516 516" version="1.1">
    <g id="surface1">
        <path
            style=" stroke:none;fill-rule:nonzero;fill:rgb(24.705882%,31.764706%,70.980392%);fill-opacity:1;"
            d="M 191.351562 194.574219 L 111.800781 273.050781 L 66.648438 228.976562 L 43 252.625 L 111.800781 321.425781 L 215 218.226562 Z M 191.351562 54.824219 L 111.800781 133.300781 L 66.648438 89.226562 L 43 112.875 L 111.800781 181.675781 L 215 78.476562 Z M 191.351562 334.324219 L 111.800781 412.800781 L 66.648438 368.726562 L 43 392.375 L 111.800781 461.175781 L 215 357.976562 Z M 191.351562 334.324219 " />
        <path
            style=" stroke:none;fill-rule:nonzero;fill:rgb(56.470588%,79.215686%,97.647059%);fill-opacity:1;"
            d="M 258 236.5 L 473 236.5 L 473 279.5 L 258 279.5 Z M 258 96.75 L 473 96.75 L 473 139.75 L 258 139.75 Z M 258 376.25 L 473 376.25 L 473 419.25 L 258 419.25 Z M 258 376.25 " />
    </g>
</svg>